HIERARCHY
ROOT mixamorig:Hips
{
	OFFSET -0.000008 104.274872 1.554316
	CHANNELS 6 Xposition Yposition Zposition Xrotation Yrotation Zrotation
	JOINT mixamorig:Spine
	{
		OFFSET -0.000005 10.181595 0.131519
		CHANNELS 6 Xposition Yposition Zposition Xrotation Yrotation Zrotation
		JOINT mixamorig:Spine1
		{
			OFFSET -0.000000 9.893959 -1.470707
			CHANNELS 6 Xposition Yposition Zposition Xrotation Yrotation Zrotation
			JOINT mixamorig:Spine2
			{
				OFFSET -0.000000 9.220757 -1.370641
				CHANNELS 6 Xposition Yposition Zposition Xrotation Yrotation Zrotation
				JOINT mixamorig:Neck
				{
					OFFSET 0.000001 16.740417 -2.049036
					CHANNELS 6 Xposition Yposition Zposition Xrotation Yrotation Zrotation
					JOINT mixamorig:Head
					{
						OFFSET 0.000000 9.617874 1.685006
						CHANNELS 6 Xposition Yposition Zposition Xrotation Yrotation Zrotation
						JOINT mixamorig:HeadTop_End
						{
							OFFSET 0.000002 22.037354 7.501101
							CHANNELS 6 Xposition Yposition Zposition Xrotation Yrotation Zrotation
							End Site
							{
								OFFSET 0.000168 2310.654297 -282.823242
							}
						}
					}
				}
				JOINT mixamorig:RightShoulder
				{
					OFFSET -4.569970 11.014908 -2.160885
					CHANNELS 6 Xposition Yposition Zposition Xrotation Yrotation Zrotation
					JOINT mixamorig:RightArm
					{
						OFFSET -10.592851 -0.524811 -2.232101
						CHANNELS 6 Xposition Yposition Zposition Xrotation Yrotation Zrotation
						JOINT mixamorig:RightForeArm
						{
							OFFSET -27.841511 0.000031 -0.000004
							CHANNELS 6 Xposition Yposition Zposition Xrotation Yrotation Zrotation
							JOINT mixamorig:RightHand
							{
								OFFSET -28.328831 -0.000015 0.000015
								CHANNELS 6 Xposition Yposition Zposition Xrotation Yrotation Zrotation
								JOINT mixamorig:RightHandThumb1
								{
									OFFSET -2.464806 -1.573990 2.681852
									CHANNELS 6 Xposition Yposition Zposition Xrotation Yrotation Zrotation
									JOINT mixamorig:RightHandThumb2
									{
										OFFSET -3.215179 -1.872803 1.924282
										CHANNELS 6 Xposition Yposition Zposition Xrotation Yrotation Zrotation
										JOINT mixamorig:RightHandThumb3
										{
											OFFSET -2.654831 -1.527969 1.512609
											CHANNELS 6 Xposition Yposition Zposition Xrotation Yrotation Zrotation
											JOINT mixamorig:RightHandThumb4
											{
												OFFSET -2.018814 -1.152008 1.108052
												CHANNELS 6 Xposition Yposition Zposition Xrotation Yrotation Zrotation
												End Site
												{
													OFFSET -188.809540 -114.533607 132.431396
												}
											}
										}
									}
								}
								JOINT mixamorig:RightHandIndex1
								{
									OFFSET -9.108284 -0.517868 2.259835
									CHANNELS 6 Xposition Yposition Zposition Xrotation Yrotation Zrotation
									JOINT mixamorig:RightHandIndex2
									{
										OFFSET -3.699989 0.000000 0.001215
										CHANNELS 6 Xposition Yposition Zposition Xrotation Yrotation Zrotation
										JOINT mixamorig:RightHandIndex3
										{
											OFFSET -2.850006 0.000031 -0.000522
											CHANNELS 6 Xposition Yposition Zposition Xrotation Yrotation Zrotation
											JOINT mixamorig:RightHandIndex4
											{
												OFFSET -2.772186 -0.000015 -0.000020
												CHANNELS 6 Xposition Yposition Zposition Xrotation Yrotation Zrotation
												End Site
												{
													OFFSET -277.218445 0.000000 -0.050231
												}
											}
										}
									}
								}
								JOINT mixamorig:RightHandMiddle1
								{
									OFFSET -9.532516 -0.000031 -0.000023
									CHANNELS 6 Xposition Yposition Zposition Xrotation Yrotation Zrotation
									JOINT mixamorig:RightHandMiddle2
									{
										OFFSET -3.700005 -0.000015 0.003713
										CHANNELS 6 Xposition Yposition Zposition Xrotation Yrotation Zrotation
										JOINT mixamorig:RightHandMiddle3
										{
											OFFSET -2.949974 0.000015 -0.002054
											CHANNELS 6 Xposition Yposition Zposition Xrotation Yrotation Zrotation
											JOINT mixamorig:RightHandMiddle4
											{
												OFFSET -2.946640 0.000000 -0.000156
												CHANNELS 6 Xposition Yposition Zposition Xrotation Yrotation Zrotation
												End Site
												{
													OFFSET -294.664337 0.000000 -0.113670
												}
											}
										}
									}
								}
								JOINT mixamorig:RightHandRing1
								{
									OFFSET -9.103600 -0.043076 -1.865134
									CHANNELS 6 Xposition Yposition Zposition Xrotation Yrotation Zrotation
									JOINT mixamorig:RightHandRing2
									{
										OFFSET -3.379288 0.000000 -0.001055
										CHANNELS 6 Xposition Yposition Zposition Xrotation Yrotation Zrotation
										JOINT mixamorig:RightHandRing3
										{
											OFFSET -2.889687 -0.000015 0.000379
											CHANNELS 6 Xposition Yposition Zposition Xrotation Yrotation Zrotation
											JOINT mixamorig:RightHandRing4
											{
												OFFSET -2.638809 -0.000015 0.000941
												CHANNELS 6 Xposition Yposition Zposition Xrotation Yrotation Zrotation
												End Site
												{
													OFFSET -263.880371 0.000000 0.516020
												}
											}
										}
									}
								}
								JOINT mixamorig:RightHandPinky1
								{
									OFFSET -8.076683 -0.486710 -3.806280
									CHANNELS 6 Xposition Yposition Zposition Xrotation Yrotation Zrotation
									JOINT mixamorig:RightHandPinky2
									{
										OFFSET -3.600014 -0.000015 -0.003747
										CHANNELS 6 Xposition Yposition Zposition Xrotation Yrotation Zrotation
										JOINT mixamorig:RightHandPinky3
										{
											OFFSET -2.099983 0.000000 -0.005739
											CHANNELS 6 Xposition Yposition Zposition Xrotation Yrotation Zrotation
											JOINT mixamorig:RightHandPinky4
											{
												OFFSET -2.115768 -0.000031 -0.003680
												CHANNELS 6 Xposition Yposition Zposition Xrotation Yrotation Zrotation
												End Site
												{
													OFFSET -211.577087 0.000000 -0.350686
												}
											}
										}
									}
								}
							}
						}
					}
				}
				JOINT mixamorig:LeftShoulder
				{
					OFFSET 4.570447 11.014725 -2.160855
					CHANNELS 6 Xposition Yposition Zposition Xrotation Yrotation Zrotation
					JOINT mixamorig:LeftArm
					{
						OFFSET 10.592371 -0.524597 -2.232119
						CHANNELS 6 Xposition Yposition Zposition Xrotation Yrotation Zrotation
						JOINT mixamorig:LeftForeArm
						{
							OFFSET 27.841532 -0.000031 0.000026
							CHANNELS 6 Xposition Yposition Zposition Xrotation Yrotation Zrotation
							JOINT mixamorig:LeftHand
							{
								OFFSET 28.328846 -0.000061 0.000022
								CHANNELS 6 Xposition Yposition Zposition Xrotation Yrotation Zrotation
								JOINT mixamorig:LeftHandThumb1
								{
									OFFSET 2.466141 -1.576172 2.681732
									CHANNELS 6 Xposition Yposition Zposition Xrotation Yrotation Zrotation
									JOINT mixamorig:LeftHandThumb2
									{
										OFFSET 3.217812 -1.872070 1.916482
										CHANNELS 6 Xposition Yposition Zposition Xrotation Yrotation Zrotation
										JOINT mixamorig:LeftHandThumb3
										{
											OFFSET 2.656029 -1.528778 1.514513
											CHANNELS 6 Xposition Yposition Zposition Xrotation Yrotation Zrotation
											JOINT mixamorig:LeftHandThumb4
											{
												OFFSET 2.020889 -1.154053 1.115139
												CHANNELS 6 Xposition Yposition Zposition Xrotation Yrotation Zrotation
												End Site
												{
													OFFSET 190.885437 -115.081749 130.048782
												}
											}
										}
									}
								}
								JOINT mixamorig:LeftHandIndex1
								{
									OFFSET 9.109314 -0.518021 2.259871
									CHANNELS 6 Xposition Yposition Zposition Xrotation Yrotation Zrotation
									JOINT mixamorig:LeftHandIndex2
									{
										OFFSET 3.699989 0.000000 -0.000322
										CHANNELS 6 Xposition Yposition Zposition Xrotation Yrotation Zrotation
										JOINT mixamorig:LeftHandIndex3
										{
											OFFSET 2.850006 0.000000 0.000352
											CHANNELS 6 Xposition Yposition Zposition Xrotation Yrotation Zrotation
											JOINT mixamorig:LeftHandIndex4
											{
												OFFSET 2.774864 -0.000031 -0.000027
												CHANNELS 6 Xposition Yposition Zposition Xrotation Yrotation Zrotation
												End Site
												{
													OFFSET 277.486267 0.000000 -0.009857
												}
											}
										}
									}
								}
								JOINT mixamorig:LeftHandMiddle1
								{
									OFFSET 9.533394 0.000061 0.000044
									CHANNELS 6 Xposition Yposition Zposition Xrotation Yrotation Zrotation
									JOINT mixamorig:LeftHandMiddle2
									{
										OFFSET 3.699989 -0.000015 -0.000231
										CHANNELS 6 Xposition Yposition Zposition Xrotation Yrotation Zrotation
										JOINT mixamorig:LeftHandMiddle3
										{
											OFFSET 2.949997 -0.000015 -0.000059
											CHANNELS 6 Xposition Yposition Zposition Xrotation Yrotation Zrotation
											JOINT mixamorig:LeftHandMiddle4
											{
												OFFSET 2.952896 0.000031 0.000063
												CHANNELS 6 Xposition Yposition Zposition Xrotation Yrotation Zrotation
												End Site
												{
													OFFSET 295.289337 0.000000 0.022810
												}
											}
										}
									}
								}
								JOINT mixamorig:LeftHandRing1
								{
									OFFSET 9.104523 -0.042999 -1.865074
									CHANNELS 6 Xposition Yposition Zposition Xrotation Yrotation Zrotation
									JOINT mixamorig:LeftHandRing2
									{
										OFFSET 3.150009 -0.000031 0.000043
										CHANNELS 6 Xposition Yposition Zposition Xrotation Yrotation Zrotation
										JOINT mixamorig:LeftHandRing3
										{
											OFFSET 2.949982 -0.000015 0.000040
											CHANNELS 6 Xposition Yposition Zposition Xrotation Yrotation Zrotation
											JOINT mixamorig:LeftHandRing4
											{
												OFFSET 2.644348 0.000000 0.000057
												CHANNELS 6 Xposition Yposition Zposition Xrotation Yrotation Zrotation
												End Site
												{
													OFFSET 264.434631 0.000000 0.012105
												}
											}
										}
									}
								}
								JOINT mixamorig:LeftHandPinky1
								{
									OFFSET 8.077789 -0.486847 -3.806259
									CHANNELS 6 Xposition Yposition Zposition Xrotation Yrotation Zrotation
									JOINT mixamorig:LeftHandPinky2
									{
										OFFSET 3.599953 0.000031 0.014727
										CHANNELS 6 Xposition Yposition Zposition Xrotation Yrotation Zrotation
										JOINT mixamorig:LeftHandPinky3
										{
											OFFSET 2.100021 0.000015 0.007705
											CHANNELS 6 Xposition Yposition Zposition Xrotation Yrotation Zrotation
											JOINT mixamorig:LeftHandPinky4
											{
												OFFSET 2.125504 0.000031 0.007517
												CHANNELS 6 Xposition Yposition Zposition Xrotation Yrotation Zrotation
												End Site
												{
													OFFSET 212.550781 0.000000 0.625752
												}
											}
										}
									}
								}
							}
						}
					}
				}
			}
		}
	}
	JOINT mixamorig:RightUpLeg
	{
		OFFSET -8.207787 -6.751648 -1.599560
		CHANNELS 6 Xposition Yposition Zposition Xrotation Yrotation Zrotation
		JOINT mixamorig:RightLeg
		{
			OFFSET -0.000002 -44.370117 0.345942
			CHANNELS 6 Xposition Yposition Zposition Xrotation Yrotation Zrotation
			JOINT mixamorig:RightFoot
			{
				OFFSET 0.000003 -44.423679 -3.043532
				CHANNELS 6 Xposition Yposition Zposition Xrotation Yrotation Zrotation
				JOINT mixamorig:RightToeBase
				{
					OFFSET -0.000002 -8.728671 10.710558
					CHANNELS 6 Xposition Yposition Zposition Xrotation Yrotation Zrotation
					JOINT mixamorig:RightToe_End
					{
						OFFSET -0.000001 -0.000679 9.278119
						CHANNELS 6 Xposition Yposition Zposition Xrotation Yrotation Zrotation
						End Site
						{
							OFFSET 0.000000 -0.067690 927.812134
						}
					}
				}
			}
		}
	}
	JOINT mixamorig:LeftUpLeg
	{
		OFFSET 8.207793 -6.751686 -1.599556
		CHANNELS 6 Xposition Yposition Zposition Xrotation Yrotation Zrotation
		JOINT mixamorig:LeftLeg
		{
			OFFSET -0.000004 -44.370014 0.346954
			CHANNELS 6 Xposition Yposition Zposition Xrotation Yrotation Zrotation
			JOINT mixamorig:LeftFoot
			{
				OFFSET -0.000001 -44.423672 -3.044401
				CHANNELS 6 Xposition Yposition Zposition Xrotation Yrotation Zrotation
				JOINT mixamorig:LeftToeBase
				{
					OFFSET -0.000002 -8.728669 10.710558
					CHANNELS 6 Xposition Yposition Zposition Xrotation Yrotation Zrotation
					JOINT mixamorig:LeftToe_End
					{
						OFFSET -0.000003 -0.000679 9.278133
						CHANNELS 6 Xposition Yposition Zposition Xrotation Yrotation Zrotation
						End Site
						{
							OFFSET 0.000000 -0.068021 927.813477
						}
					}
				}
			}
		}
	}
}
MOTION
Frames: 3
Frame Time: 0.033333
0.000006 104.270477 1.554256 0.000010 0.000003 -0.000113 -0.000005 10.181587 0.131522 0.000001 -0.000003 0.000084 -0.000000 9.893967 -1.470711 0.000001 0.000000 -0.000000 -0.000000 9.220802 -1.370642 0.000000 -0.000000 -0.000000 0.000001 16.740433 -2.049030 0.000000 -0.000000 -0.000000 0.000000 9.617859 1.685014 0.000000 0.000000 0.000000 0.000002 22.037384 7.501101 0.000000 -0.000000 0.000000 -4.569968 11.014880 -2.160881 0.000008 0.000001 -0.000038 -10.592878 -0.524750 -2.231935 74.424781 24.532796 -18.750573 -27.841515 0.000008 0.000521 -54.748068 110.624360 73.600479 -28.328838 0.000019 0.000026 -0.000319 -0.000045 0.000008 -2.464442 -1.573907 2.682360 -32.751587 -152.389553 20.778965 -3.215268 -1.872547 1.924648 152.676366 32.234125 9.694769 -2.654953 -1.527887 1.513064 145.564254 27.304754 -35.977485 -2.018831 -1.152013 1.108058 -0.000002 -0.000001 0.000004 -9.108416 -0.517561 2.260190 111.615611 16.457698 -24.101497 -3.700043 0.000306 0.001551 107.814857 14.112883 -19.241024 -2.850084 0.000359 -0.000205 106.377218 11.194794 -14.919812 -2.772139 -0.000000 -0.000019 -0.000000 0.000000 -0.000001 -9.532598 0.000279 0.000269 99.730085 15.257920 -18.220692 -3.700077 0.000337 0.003993 98.267824 11.763345 -13.471451 -2.950048 0.000322 -0.001800 96.716155 10.349847 -11.623928 -2.946623 -0.000014 -0.000152 -0.000000 -0.000001 -0.000001 -9.103728 -0.042760 -1.864851 97.481081 17.403609 -19.742363 -3.379345 0.000313 -0.000793 99.780628 10.747216 -12.763948 -2.889742 0.000345 0.000668 101.845668 6.204477 -7.692526 -2.638828 -0.000001 0.000942 0.000001 0.000000 -0.000002 -8.076764 -0.486385 -3.806035 85.083646 16.157724 -14.705500 -3.600043 0.000279 -0.003514 88.939875 8.447080 -7.944188 -2.100007 0.000331 -0.005492 91.612945 4.223365 -4.122873 -2.115766 -0.000068 -0.003683 -0.000002 -0.000002 -0.000001 4.570446 11.014691 -2.160851 -0.000018 0.000010 -0.000021 10.592372 -0.524503 -2.232304 73.199445 -1.172922 0.871180 27.841812 0.000072 -0.000213 90.002926 -70.804944 70.807847 28.328846 -0.000028 0.000023 0.000022 -0.000088 0.000000 2.466100 -1.576171 2.681892 -17.574994 152.589158 -48.465936 3.217767 -1.871705 1.916374 157.227526 -32.882962 -8.955139 2.656104 -1.528647 1.514466 134.229705 -29.369588 48.469160 2.020906 -1.154080 1.115148 0.000002 0.000001 0.000002 9.109370 -0.517819 2.259730 92.109370 -12.319684 12.765711 3.700045 0.000183 -0.000477 89.629629 -8.995026 8.953322 2.850049 0.000198 0.000223 88.491904 -9.477792 9.231410 2.774903 -0.000030 -0.000024 0.000002 -0.000003 -0.000000 9.533464 0.000215 -0.000100 87.196784 -13.427039 12.782902 3.700049 0.000192 -0.000381 89.099852 -11.284946 11.107535 2.950063 0.000181 -0.000209 89.910220 -16.190053 16.168089 2.952866 -0.000012 0.000068 -0.000002 -0.000001 -0.000000 9.104579 -0.042835 -1.865232 85.715568 -11.985214 11.128274 3.150046 0.000205 -0.000096 91.502794 -12.753697 13.091652 2.950040 0.000176 -0.000065 94.489110 -16.281486 17.591844 2.644330 0.000035 0.000053 0.000001 -0.000000 0.000001 8.077834 -0.486748 -3.806400 70.136050 -14.551069 10.654170 3.599999 0.000154 0.014562 70.066416 -14.107975 10.283104 2.100056 0.000164 0.007549 76.339242 -14.630610 11.918578 2.125491 -0.000018 0.007516 -0.000002 0.000001 -0.000001 -8.207786 -6.751667 -1.599560 -0.077001 -0.000003 0.000080 -0.000002 -44.370110 0.345938 0.153719 -0.000000 -0.000000 0.000000 -44.423679 -3.043532 -0.076700 0.000000 -0.000002 -0.000006 -8.728667 10.710559 -0.000009 -0.000000 -0.000000 -0.000001 -0.000679 9.278123 0.000000 -0.000000 -0.000000 8.207792 -6.751710 -1.599556 -0.074518 -0.000003 0.000081 -0.000002 -44.370014 0.346960 0.148822 0.000002 0.000000 -0.000001 -44.423664 -3.044403 -0.074314 0.000000 -0.000002 -0.000004 -8.728671 10.710558 0.000007 -0.000000 -0.000000 0.000000 -0.000680 9.278137 -0.000000 0.000000 -0.000001 
0.000006 104.270477 1.554256 0.000010 0.000003 -0.000113 -0.000005 10.181587 0.131522 0.000001 -0.000003 0.000084 -0.000000 9.893967 -1.470711 0.000001 0.000000 -0.000000 -0.000000 9.220802 -1.370642 0.000000 -0.000000 -0.000000 0.000001 16.740433 -2.049030 0.000000 -0.000000 -0.000000 0.000000 9.617859 1.685014 0.000000 0.000000 0.000000 0.000002 22.037384 7.501101 0.000000 -0.000000 0.000000 -4.569968 11.014880 -2.160881 0.000008 0.000001 -0.000038 -10.592875 -0.524762 -2.231892 73.932823 30.333266 -23.062035 -27.841518 0.000015 0.000547 -51.002081 107.430153 66.024495 -28.328821 0.000022 0.000027 -0.000315 -0.000045 0.000007 -2.464401 -1.573899 2.682364 -34.233352 -149.713170 16.586477 -3.215276 -1.872583 1.924637 151.566406 31.789268 7.891121 -2.654957 -1.527879 1.513048 144.243172 28.143794 -27.655982 -2.018839 -1.151987 1.108054 -0.000000 -0.000004 0.000007 -9.108370 -0.517551 2.260176 110.559473 13.944559 -20.082747 -3.700058 0.000320 0.001554 108.878755 10.945566 -15.234587 -2.850081 0.000374 -0.000212 106.560015 8.014354 -10.729134 -2.772170 0.000000 -0.000017 0.000000 -0.000003 -0.000001 -9.532558 0.000288 0.000259 98.092445 11.543763 -13.442753 -3.700035 0.000346 0.003987 99.022355 8.520238 -9.866901 -2.950047 0.000331 -0.001785 99.121946 8.749828 -10.251293 -2.946609 0.000013 -0.000155 0.000001 -0.000001 0.000000 -9.103692 -0.042735 -1.864858 95.799168 13.183124 -14.528028 -3.379323 0.000326 -0.000782 98.283123 8.904049 -10.307087 -2.889761 0.000358 0.000673 102.198017 7.118265 -8.871985 -2.638822 -0.000015 0.000942 0.000002 -0.000001 -0.000001 -8.076742 -0.486385 -3.806042 84.537005 14.093512 -12.687758 -3.600030 0.000279 -0.003526 86.563161 7.894495 -7.103747 -2.100011 0.000326 -0.005516 89.719569 4.746652 -4.508015 -2.115773 -0.000056 -0.003679 -0.000001 0.000001 -0.000001 4.570446 11.014691 -2.160851 -0.000018 0.000010 -0.000021 10.592375 -0.524501 -2.232330 72.573458 -1.972761 1.448587 27.841820 0.000054 -0.000173 91.889212 -73.236560 75.054271 28.328848 -0.000028 0.000024 0.000020 -0.000089 -0.000000 2.466257 -1.576014 2.681823 20.133595 171.728168 -116.675532 3.217816 -1.871706 1.916388 167.224560 -30.450349 6.865893 2.656089 -1.528663 1.514470 141.241086 -27.249704 50.371627 2.020895 -1.154055 1.115166 0.000004 0.000003 0.000004 9.109419 -0.517809 2.259749 108.480534 -17.841415 24.574631 3.700053 0.000245 -0.000454 105.695367 -7.976029 10.534675 2.850043 0.000288 0.000208 104.043015 -4.821471 6.172132 2.774877 -0.000042 -0.000026 0.000001 0.000001 0.000001 9.533485 0.000245 -0.000081 99.713010 -17.358583 20.508410 3.700044 0.000235 -0.000393 100.336838 -6.270909 7.511885 2.950046 0.000218 -0.000207 100.618802 -7.729541 9.310350 2.952873 -0.000014 0.000066 0.000000 -0.000001 0.000000 9.104617 -0.042829 -1.865223 93.856443 -17.746932 18.963894 3.150042 0.000228 -0.000079 99.771346 -11.102341 13.163103 2.950002 0.000213 -0.000087 100.852470 -10.781676 13.029280 2.644343 0.000014 0.000054 -0.000002 -0.000001 0.000002 8.077856 -0.486736 -3.806409 75.168861 -19.359485 15.429959 3.600016 0.000160 0.014570 78.665140 -17.334822 14.679497 2.100046 0.000181 0.007563 82.389034 -15.107752 13.679448 2.125503 -0.000017 0.007511 0.000001 -0.000003 0.000000 -8.207786 -6.751667 -1.599560 -0.077001 -0.000003 0.000080 -0.000002 -44.370110 0.345938 0.153719 -0.000000 -0.000000 0.000000 -44.423679 -3.043532 -0.076700 0.000000 -0.000002 -0.000006 -8.728667 10.710559 -0.000009 -0.000000 -0.000000 -0.000001 -0.000679 9.278123 0.000000 -0.000000 -0.000000 8.207792 -6.751710 -1.599556 -0.074518 -0.000003 0.000081 -0.000002 -44.370014 0.346960 0.148822 0.000002 0.000000 -0.000001 -44.423664 -3.044403 -0.074314 0.000000 -0.000002 -0.000004 -8.728671 10.710558 0.000007 -0.000000 -0.000000 0.000000 -0.000680 9.278137 -0.000000 0.000000 -0.000001 
0.000006 104.270477 1.554256 0.000010 0.000003 -0.000113 -0.000005 10.181587 0.131522 0.000001 -0.000003 0.000084 -0.000000 9.893967 -1.470711 0.000001 0.000000 -0.000000 -0.000000 9.220802 -1.370642 0.000000 -0.000000 -0.000000 0.000001 16.740433 -2.049030 0.000000 -0.000000 -0.000000 0.000000 9.617859 1.685014 0.000000 0.000000 0.000000 0.000002 22.037384 7.501101 0.000000 -0.000000 0.000000 -4.569968 11.014880 -2.160881 0.000008 0.000001 -0.000038 -10.592865 -0.524802 -2.231851 73.957104 39.292873 -30.091758 -27.841536 0.000009 0.000563 -46.790597 103.804156 57.780545 -28.328808 0.000020 0.000039 -0.000320 -0.000043 0.000005 -2.464454 -1.574029 2.682374 -13.330491 -143.790372 48.827615 -3.215151 -1.872419 1.924584 137.968168 31.997852 63.321878 -2.654978 -1.527855 1.513048 150.664274 28.575643 -17.557346 -2.018835 -1.152001 1.108057 0.000001 0.000000 0.000005 -9.108380 -0.517586 2.260228 117.693981 15.823229 -25.969986 -3.700061 0.000307 0.001578 112.541840 11.389632 -16.955554 -2.850069 0.000366 -0.000201 109.455783 7.729405 -10.910155 -2.772159 0.000001 -0.000013 0.000002 0.000005 -0.000002 -9.532571 0.000288 0.000299 107.504466 11.080706 -15.257360 -3.700063 0.000349 0.004018 106.237705 7.605489 -10.005444 -2.950070 0.000337 -0.001782 102.881254 7.398714 -9.265871 -2.946625 0.000015 -0.000158 0.000000 -0.000001 0.000000 -9.103676 -0.042731 -1.864803 106.498536 12.655600 -16.836194 -3.379318 0.000323 -0.000738 106.002337 9.072979 -12.044566 -2.889755 0.000348 0.000663 105.907588 7.111595 -9.473042 -2.638810 -0.000015 0.000945 0.000000 0.000004 0.000000 -8.076739 -0.486378 -3.805992 93.171655 14.492123 -15.152911 -3.600042 0.000291 -0.003500 93.391724 8.911423 -9.074142 -2.100003 0.000319 -0.005484 94.526301 5.772397 -6.008729 -2.115777 -0.000055 -0.003677 0.000004 -0.000000 -0.000003 4.570446 11.014691 -2.160851 -0.000018 0.000010 -0.000021 10.592421 -0.524476 -2.232378 70.755186 -21.628825 15.448918 27.841816 0.000042 -0.000200 92.585400 -76.109501 78.633099 28.328833 -0.000028 0.000016 0.000024 -0.000088 -0.000000 2.466244 -1.575883 2.681783 15.444883 190.452544 -136.952533 3.217887 -1.871868 1.916446 162.987097 -18.382781 54.162406 2.656107 -1.528708 1.514515 139.494046 -27.229748 64.125873 2.020887 -1.154054 1.115140 0.000000 0.000001 0.000004 9.109411 -0.517832 2.259769 109.315258 -22.910620 31.876541 3.700078 0.000207 -0.000438 109.849741 -14.832393 21.028626 2.850047 0.000270 0.000234 108.253485 -9.647208 13.309855 2.774871 -0.000045 -0.000026 -0.000000 -0.000000 0.000000 9.533504 0.000249 -0.000042 110.874823 -24.035156 34.330443 3.700065 0.000247 -0.000365 109.852453 -10.709362 15.203610 2.950045 0.000259 -0.000190 108.698274 -7.537533 10.498192 2.952864 -0.000019 0.000062 -0.000000 0.000000 0.000000 9.104631 -0.042796 -1.865175 113.546007 -22.208425 33.361769 3.150043 0.000262 -0.000087 111.203813 -9.948829 14.492429 2.950022 0.000268 -0.000082 107.326908 -4.968979 6.754010 2.644345 0.000030 0.000054 0.000000 0.000000 0.000001 8.077895 -0.486637 -3.806358 117.627633 -21.534425 35.870378 3.600037 0.000274 0.014610 118.251270 -12.498843 21.606320 2.100043 0.000303 0.007569 116.650574 -7.923070 13.557419 2.125499 -0.000013 0.007514 -0.000001 -0.000000 -0.000001 -8.207786 -6.751667 -1.599560 -0.077001 -0.000003 0.000080 -0.000002 -44.370110 0.345938 0.153719 -0.000000 -0.000000 0.000000 -44.423679 -3.043532 -0.076700 0.000000 -0.000002 -0.000006 -8.728667 10.710559 -0.000009 -0.000000 -0.000000 -0.000001 -0.000679 9.278123 0.000000 -0.000000 -0.000000 8.207792 -6.751710 -1.599556 -0.074518 -0.000003 0.000081 -0.000002 -44.370014 0.346960 0.148822 0.000002 0.000000 -0.000001 -44.423664 -3.044403 -0.074314 0.000000 -0.000002 -0.000004 -8.728671 10.710558 0.000007 -0.000000 -0.000000 0.000000 -0.000680 9.278137 -0.000000 0.000000 -0.000001 
